<svg width="20" height="20" viewBox="0 0 20 20" fill="none" xmlns="http://www.w3.org/2000/svg">
<path d="M4.16675 13.3333H12.5001L9.62508 9.58333L7.70841 12.0833L6.41675 10.4167L4.16675 13.3333ZM3.33341 16.6667C2.87508 16.6667 2.48286 16.5036 2.15675 16.1775C1.83008 15.8508 1.66675 15.4583 1.66675 15V4.99999C1.66675 4.54166 1.83008 4.14944 2.15675 3.82333C2.48286 3.49666 2.87508 3.33333 3.33341 3.33333H13.3334C13.7917 3.33333 14.1842 3.49666 14.5109 3.82333C14.837 4.14944 15.0001 4.54166 15.0001 4.99999V8.74999L18.3334 5.41666V14.5833L15.0001 11.25V15C15.0001 15.4583 14.837 15.8508 14.5109 16.1775C14.1842 16.5036 13.7917 16.6667 13.3334 16.6667H3.33341Z" fill="white"/>
</svg>
