<svg width="15" height="15" viewBox="0 0 15 15" fill="none" xmlns="http://www.w3.org/2000/svg">
<path d="M7.5 1.25C6.67924 1.25 5.86651 1.41166 5.10823 1.72575C4.34994 2.03984 3.66095 2.50022 3.08058 3.08058C1.90848 4.25269 1.25 5.8424 1.25 7.5C1.25 10.2625 3.04375 12.6063 5.525 13.4375C5.8375 13.4875 5.9375 13.2938 5.9375 13.125V12.0688C4.20625 12.4438 3.8375 11.2313 3.8375 11.2313C3.55 10.5063 3.14375 10.3125 3.14375 10.3125C2.575 9.925 3.1875 9.9375 3.1875 9.9375C3.8125 9.98125 4.14375 10.5813 4.14375 10.5813C4.6875 11.5313 5.60625 11.25 5.9625 11.1C6.01875 10.6938 6.18125 10.4188 6.35625 10.2625C4.96875 10.1063 3.5125 9.56875 3.5125 7.1875C3.5125 6.49375 3.75 5.9375 4.15625 5.49375C4.09375 5.3375 3.875 4.6875 4.21875 3.84375C4.21875 3.84375 4.74375 3.675 5.9375 4.48125C6.43125 4.34375 6.96875 4.275 7.5 4.275C8.03125 4.275 8.56875 4.34375 9.0625 4.48125C10.2562 3.675 10.7812 3.84375 10.7812 3.84375C11.125 4.6875 10.9063 5.3375 10.8438 5.49375C11.25 5.9375 11.4875 6.49375 11.4875 7.1875C11.4875 9.575 10.025 10.1 8.63125 10.2563C8.85625 10.45 9.0625 10.8313 9.0625 11.4125V13.125C9.0625 13.2938 9.1625 13.4938 9.48125 13.4375C11.9625 12.6 13.75 10.2625 13.75 7.5C13.75 6.67924 13.5883 5.86651 13.2742 5.10823C12.9602 4.34994 12.4998 3.66095 11.9194 3.08058C11.3391 2.50022 10.6501 2.03984 9.89177 1.72575C9.13349 1.41166 8.32076 1.25 7.5 1.25Z" fill="#72B63D"/>
</svg>
