<svg width="13" height="13" viewBox="0 0 13 13" fill="none" xmlns="http://www.w3.org/2000/svg">
<path d="M10.875 0.875C11.2065 0.875 11.5245 1.0067 11.7589 1.24112C11.9933 1.47554 12.125 1.79348 12.125 2.125V10.875C12.125 11.2065 11.9933 11.5245 11.7589 11.7589C11.5245 11.9933 11.2065 12.125 10.875 12.125H2.125C1.79348 12.125 1.47554 11.9933 1.24112 11.7589C1.0067 11.5245 0.875 11.2065 0.875 10.875V2.125C0.875 1.79348 1.0067 1.47554 1.24112 1.24112C1.47554 1.0067 1.79348 0.875 2.125 0.875H10.875ZM10.5625 10.5625V7.25C10.5625 6.70962 10.3478 6.19138 9.96573 5.80927C9.58362 5.42716 9.06538 5.2125 8.525 5.2125C7.99375 5.2125 7.375 5.5375 7.075 6.025V5.33125H5.33125V10.5625H7.075V7.48125C7.075 7 7.4625 6.60625 7.94375 6.60625C8.17581 6.60625 8.39837 6.69844 8.56247 6.86253C8.72656 7.02663 8.81875 7.24919 8.81875 7.48125V10.5625H10.5625ZM3.3 4.35C3.57848 4.35 3.84555 4.23938 4.04246 4.04246C4.23938 3.84555 4.35 3.57848 4.35 3.3C4.35 2.71875 3.88125 2.24375 3.3 2.24375C3.01987 2.24375 2.7512 2.35503 2.55312 2.55312C2.35503 2.7512 2.24375 3.01987 2.24375 3.3C2.24375 3.88125 2.71875 4.35 3.3 4.35ZM4.16875 10.5625V5.33125H2.4375V10.5625H4.16875Z" fill="#72B63D"/>
</svg>
