<svg width="12" height="13" viewBox="0 0 12 13" fill="none" xmlns="http://www.w3.org/2000/svg">
<path d="M11.0667 12.125L6.86667 8.1875C6.53333 8.4375 6.15 8.63542 5.71667 8.78125C5.28333 8.92708 4.82222 9 4.33333 9C3.12222 9 2.09733 8.60687 1.25867 7.82062C0.419556 7.03396 0 6.07292 0 4.9375C0 3.80208 0.419556 2.84104 1.25867 2.05438C2.09733 1.26813 3.12222 0.875 4.33333 0.875C5.54444 0.875 6.56956 1.26813 7.40867 2.05438C8.24733 2.84104 8.66667 3.80208 8.66667 4.9375C8.66667 5.39583 8.58889 5.82812 8.43333 6.23437C8.27778 6.64062 8.06667 7 7.8 7.3125L12 11.25L11.0667 12.125ZM4.33333 7.75C5.16667 7.75 5.87511 7.47667 6.45867 6.93C7.04178 6.38292 7.33333 5.71875 7.33333 4.9375C7.33333 4.15625 7.04178 3.49208 6.45867 2.945C5.87511 2.39833 5.16667 2.125 4.33333 2.125C3.5 2.125 2.79156 2.39833 2.208 2.945C1.62489 3.49208 1.33333 4.15625 1.33333 4.9375C1.33333 5.71875 1.62489 6.38292 2.208 6.93C2.79156 7.47667 3.5 7.75 4.33333 7.75Z" fill="#B68D25"/>
</svg>
