<svg width="12" height="11" viewBox="0 0 12 11" fill="none" xmlns="http://www.w3.org/2000/svg">
<path d="M11.1897 1.70321C10.8132 1.91377 10.4075 2.05214 9.98704 2.11832C10.4173 1.79947 10.7497 1.29412 10.9061 0.686497C10.5004 0.987299 10.0506 1.19786 9.57639 1.31818C9.19018 0.800802 8.64752 0.5 8.03154 0.5C6.88268 0.5 5.94404 1.65508 5.94404 3.08088C5.94404 3.28543 5.9636 3.48396 5.99782 3.67045C4.25742 3.56217 2.70769 2.53342 1.67616 0.975267C1.49528 1.35428 1.39261 1.79947 1.39261 2.26872C1.39261 3.16511 1.75927 3.95922 2.32636 4.41043C1.97926 4.41043 1.65661 4.29011 1.37306 4.10963V4.12767C1.37306 5.37901 2.09659 6.4258 3.05479 6.66043C2.74715 6.76403 2.42419 6.77844 2.11126 6.70254C2.24404 7.2154 2.50409 7.66415 2.85485 7.98572C3.20561 8.30729 3.62944 8.48551 4.06676 8.49532C3.32545 9.21751 2.40654 9.60788 1.46106 9.60227C1.29484 9.60227 1.12862 9.59024 0.962402 9.56618C1.89127 10.3001 2.99612 10.7273 4.1792 10.7273C8.03154 10.7273 10.1484 6.79278 10.1484 3.38168C10.1484 3.26738 10.1484 3.15909 10.1435 3.04479C10.5541 2.68382 10.9061 2.2266 11.1897 1.70321Z" fill="#72B63D"/>
</svg>
